<?xml version="1.0" encoding="UTF-8" standalone="no"?>
<!DOCTYPE svg PUBLIC "-//W3C//DTD SVG 1.1//EN"
 "http://www.w3.org/Graphics/SVG/1.1/DTD/svg11.dtd">
<!-- Generated by graphviz version 9.0.0 (20230911.1827)
 -->
<!-- Pages: 1 -->
<svg width="466pt" height="260pt"
 viewBox="0.00 0.00 465.76 260.00" xmlns="http://www.w3.org/2000/svg" xmlns:xlink="http://www.w3.org/1999/xlink">
<g id="graph0" class="graph" transform="scale(1 1) rotate(0) translate(4 256)">
<polygon fill="white" stroke="none" points="-4,4 -4,-256 461.76,-256 461.76,4 -4,4"/>
<!-- ジョンマッカーシーは -->
<g id="node1" class="node">
<title>ジョンマッカーシーは</title>
<ellipse fill="none" stroke="black" cx="102.53" cy="-90" rx="102.53" ry="18"/>
<text text-anchor="middle" x="102.53" y="-84.2" font-family="Times,serif" font-size="14.00">ジョンマッカーシーは</text>
</g>
<!-- 作り出した -->
<g id="node2" class="node">
<title>作り出した</title>
<ellipse fill="none" stroke="black" cx="261.53" cy="-18" rx="56.71" ry="18"/>
<text text-anchor="middle" x="261.53" y="-12.2" font-family="Times,serif" font-size="14.00">作り出した</text>
</g>
<!-- ジョンマッカーシーは&#45;&gt;作り出した -->
<g id="edge1" class="edge">
<title>ジョンマッカーシーは&#45;&gt;作り出した</title>
<path fill="none" stroke="black" d="M139.41,-72.76C163.17,-62.3 194.14,-48.67 218.95,-37.75"/>
<polygon fill="black" stroke="black" points="220.03,-41.09 227.78,-33.86 217.21,-34.69 220.03,-41.09"/>
</g>
<!-- AIに関する -->
<g id="node3" class="node">
<title>AIに関する</title>
<ellipse fill="none" stroke="black" cx="251.53" cy="-234" rx="59.54" ry="18"/>
<text text-anchor="middle" x="251.53" y="-228.95" font-family="Times,serif" font-size="14.00">AIに関する</text>
</g>
<!-- 最初の -->
<g id="node4" class="node">
<title>最初の</title>
<ellipse fill="none" stroke="black" cx="251.53" cy="-162" rx="38.18" ry="18"/>
<text text-anchor="middle" x="251.53" y="-156.2" font-family="Times,serif" font-size="14.00">最初の</text>
</g>
<!-- AIに関する&#45;&gt;最初の -->
<g id="edge2" class="edge">
<title>AIに関する&#45;&gt;最初の</title>
<path fill="none" stroke="black" d="M251.53,-215.7C251.53,-208.41 251.53,-199.73 251.53,-191.54"/>
<polygon fill="black" stroke="black" points="255.03,-191.62 251.53,-181.62 248.03,-191.62 255.03,-191.62"/>
</g>
<!-- 会議で -->
<g id="node5" class="node">
<title>会議で</title>
<ellipse fill="none" stroke="black" cx="261.53" cy="-90" rx="38.18" ry="18"/>
<text text-anchor="middle" x="261.53" y="-84.2" font-family="Times,serif" font-size="14.00">会議で</text>
</g>
<!-- 最初の&#45;&gt;会議で -->
<g id="edge3" class="edge">
<title>最初の&#45;&gt;会議で</title>
<path fill="none" stroke="black" d="M254,-143.7C255.05,-136.32 256.31,-127.52 257.49,-119.25"/>
<polygon fill="black" stroke="black" points="260.92,-120 258.87,-109.6 253.99,-119.01 260.92,-120"/>
</g>
<!-- 会議で&#45;&gt;作り出した -->
<g id="edge4" class="edge">
<title>会議で&#45;&gt;作り出した</title>
<path fill="none" stroke="black" d="M261.53,-71.7C261.53,-64.41 261.53,-55.73 261.53,-47.54"/>
<polygon fill="black" stroke="black" points="265.03,-47.62 261.53,-37.62 258.03,-47.62 265.03,-47.62"/>
</g>
<!-- 人工知能という -->
<g id="node6" class="node">
<title>人工知能という</title>
<ellipse fill="none" stroke="black" cx="382.53" cy="-162" rx="75.23" ry="18"/>
<text text-anchor="middle" x="382.53" y="-156.2" font-family="Times,serif" font-size="14.00">人工知能という</text>
</g>
<!-- 用語を -->
<g id="node7" class="node">
<title>用語を</title>
<ellipse fill="none" stroke="black" cx="373.53" cy="-90" rx="38.18" ry="18"/>
<text text-anchor="middle" x="373.53" y="-84.2" font-family="Times,serif" font-size="14.00">用語を</text>
</g>
<!-- 人工知能という&#45;&gt;用語を -->
<g id="edge5" class="edge">
<title>人工知能という&#45;&gt;用語を</title>
<path fill="none" stroke="black" d="M380.3,-143.7C379.36,-136.32 378.22,-127.52 377.16,-119.25"/>
<polygon fill="black" stroke="black" points="380.67,-119.08 375.92,-109.61 373.72,-119.97 380.67,-119.08"/>
</g>
<!-- 用語を&#45;&gt;作り出した -->
<g id="edge6" class="edge">
<title>用語を&#45;&gt;作り出した</title>
<path fill="none" stroke="black" d="M351.13,-75C335.3,-65.11 313.77,-51.65 295.79,-40.41"/>
<polygon fill="black" stroke="black" points="297.84,-37.57 287.5,-35.24 294.13,-43.5 297.84,-37.57"/>
</g>
</g>
</svg>
